Coordinates
version=1
nRows=7
nColumns=40
inDegrees=yes

Units are S.I. units (second, meters, Newtons, ...)
If the header above contains a line with 'inDegrees', this indicates whether rotational values are in degrees (yes) or radians (no).

endheader
time	pelvis_tilt	pelvis_list	pelvis_rotation	pelvis_tx	pelvis_ty	pelvis_tz	hip_flexion_r	hip_adduction_r	hip_rotation_r	knee_angle_r	knee_angle_r_beta	ankle_angle_r	subtalar_angle_r	mtp_angle_r	hip_flexion_l	hip_adduction_l	hip_rotation_l	knee_angle_l	knee_angle_l_beta	ankle_angle_l	subtalar_angle_l	mtp_angle_l	lumbar_extension	lumbar_bending	lumbar_rotation	arm_flex_r	arm_add_r	arm_rot_r	elbow_flex_r	pro_sup_r	wrist_flex_r	wrist_dev_r	arm_flex_l	arm_add_l	arm_rot_l	elbow_flex_l	pro_sup_l	wrist_flex_l	wrist_dev_l
      5.17500000	    -16.71624946	     -5.13726354	     19.82582937	     -1.35712643	      0.93247802	      0.24904110	     70.12562362	    -15.59222639	     -7.76786602	     58.89455314	      1.02790386	      3.93558742	     -8.24525332	      0.00000000	     -9.54878809	     -9.64107453	     18.79350562	     28.60088851	      0.49917967	    -19.87052278	     -3.43667360	      0.00000000	    -14.11804752	     13.12844165	    -16.67425706	    -68.65174184	     -7.09371660	    -30.59652654	     79.71981259	     51.47823705	      0.00000000	      0.00000000	     68.05840058	    -17.47010326	      1.57334066	    130.37426759	     38.76507273	      0.00000000	      0.00000000
      5.18000000	    -16.45514181	     -4.59520603	     19.41832225	     -1.32292385	      0.93551086	      0.24850401	     68.30396452	    -15.51151464	     -8.12458212	     53.04974445	      0.92589271	      2.52676209	     -7.02873623	      0.00000000	    -10.44078312	     -8.98817959	     19.44210908	     30.38590840	      0.53033415	    -20.51864348	     -3.41602857	      0.00000000	    -14.29727974	     12.84776580	    -16.65545049	    -67.84101299	     -6.84874733	    -31.12704704	     80.04003200	     51.51549865	      0.00000000	      0.00000000	     64.89846726	    -18.94941931	      1.97977376	    131.49973146	     38.95134543	      0.00000000	      0.00000000
      5.18500000	    -16.17101366	     -4.06700978	     19.03859400	     -1.28889859	      0.93840491	      0.24832179	     66.31488472	    -15.36159689	     -8.55022031	     47.24299343	      0.82454578	      0.88963783	     -5.79137004	      0.00000000	    -11.02287802	     -8.33954886	     19.89649786	     32.77857779	      0.57209411	    -20.51071883	     -2.84579823	      0.00000000	    -14.54747518	     12.54858267	    -16.69361256	    -66.79270011	     -6.72415398	    -31.48585523	     80.43968395	     51.56458964	      0.00000000	      0.00000000	     61.41653499	    -20.54745368	      2.39491784	    132.24851924	     39.13426768	      0.00000000	      0.00000000
      5.19000000	    -15.86357265	     -3.56756657	     18.65061667	     -1.25501686	      0.94107237	      0.24852473	     64.21182673	    -15.10927560	     -9.02531689	     41.59044556	      0.72589021	     -0.87941147	     -4.54392013	      0.00000000	    -11.32633915	     -7.72484146	     20.07982725	     35.69770807	      0.62304254	    -20.03826879	     -1.82943230	      0.00000000	    -14.86856613	     12.22148059	    -16.70326319	    -65.55149678	     -6.72269234	    -31.62215825	     80.88629655	     51.61535633	      0.00000000	      0.00000000	     57.66577413	    -22.08593416	      2.87956721	    132.66836585	     39.30167961	      0.00000000	      0.00000000
      5.19500000	    -15.53556978	     -3.08435833	     18.22660054	     -1.22125551	      0.94345742	      0.24909556	     62.05845859	    -14.75570424	     -9.52024054	     36.23463803	      0.63241374	     -2.76743440	     -3.36958891	      0.00000000	    -11.38946236	     -7.13902478	     19.97095388	     39.03752885	      0.68133341	    -19.30131240	     -0.49809436	      0.00000000	    -15.25535138	     11.85876727	    -16.68738374	    -64.13953940	     -6.82289379	    -31.58275247	     81.42184830	     51.66697447	      0.00000000	      0.00000000	     53.70097854	    -23.59151502	      3.35563991	    132.70857841	     39.44032640	      0.00000000	      0.00000000
      5.20000000	    -15.19499375	     -2.61354217	     17.75074290	     -1.18760630	      0.94550578	      0.24997950	     59.93304847	    -14.31779474	    -10.02994712	     31.34426753	      0.54706067	     -4.69466694	     -2.33066565	      0.00000000	    -11.23430911	     -6.57999442	     19.56816869	     42.71250911	      0.74547392	    -18.51166475	      0.81394107	      0.00000000	    -15.70426592	     11.46856691	    -16.72343543	    -62.57806303	     -7.15365793	    -31.28324424	     82.10182911	     51.73844295	      0.00000000	      0.00000000	     49.43057036	    -25.11309194	      3.58291471	    132.44983417	     39.63047848	      0.00000000	      0.00000000
      5.20500000	    -14.86141700	     -2.15658128	     17.21685394	     -1.15409516	      0.94717669	      0.25111544	     57.91636662	    -13.81885103	    -10.55293124	     27.06895674	      0.47244242	     -6.57816730	     -1.46828526	      0.00000000	    -10.86243234	     -6.04790986	     18.91579659	     46.63836629	      0.81399305	    -17.72870531	      2.29630321	      0.00000000	    -16.17084050	     11.00911715	    -16.56726723	    -60.88944970	     -7.36248085	    -30.99240554	     82.83522977	     51.79328605	      0.00000000	      0.00000000	     45.22412545	    -26.31788923	      4.01186144	    131.63308986	     39.70828476	      0.00000000	      0.00000000
